<svg width="205" height="44" viewBox="0 0 205 44" fill="none" xmlns="http://www.w3.org/2000/svg">
<path d="M23.76 11.4004L18.44 27.0004C18.4 27.0804 18.36 27.1604 18.36 27.2404L18.32 27.3204C17.28 30.2004 15.88 32.4404 12.44 32.4404H11.6C8.12 32.4404 6.92 30.6004 5.72 27.2404L5.64 27.0004L0.32 11.4004H2.92L8.12 26.6404C8.88 28.9204 9.52 30.2404 12 30.2404H12.12C14.04 30.2404 15.04 29.0804 15.76 27.2404L21.16 11.4004H23.76ZM28.6625 1.88043C28.7825 2.04043 28.9025 2.24043 28.9025 2.44043V3.84043C28.9025 4.04043 28.7825 4.24043 28.6625 4.40043C28.5025 4.56043 28.3025 4.64043 28.1025 4.64043H26.7025C26.2625 4.64043 25.9025 4.28043 25.9025 3.84043V2.44043C25.9025 2.00043 26.2625 1.64043 26.7025 1.64043H28.1025C28.3025 1.64043 28.5025 1.72043 28.6625 1.88043ZM28.7025 32.4404H26.1025V11.4004H28.7025V32.4404ZM35.3822 32.4404H32.7822V0.000427723H35.3822V32.4404ZM72.1419 11.4004C76.6219 11.4004 79.5419 14.3604 79.5419 19.6804V32.4404H76.9819V20.0804C76.9819 15.4404 74.3819 13.5604 71.4219 13.5604H66.2219C63.2619 13.5604 60.6619 15.4404 60.6619 20.0804V32.3604H58.0619V20.0804C58.0619 15.4404 55.5019 13.5604 52.5419 13.5604H47.3019C44.3419 13.5604 41.7819 15.4404 41.7819 20.0804V32.4404H39.1819V19.6804C39.1819 14.3604 42.1019 11.4004 46.6219 11.4004H52.4619C55.8619 11.4004 58.3419 13.1204 59.3819 16.2404C60.3819 13.1204 62.9019 11.4004 66.3019 11.4004H72.1419ZM99.6481 11.4004C104.128 11.4004 107.088 14.3604 107.088 19.6804V34.9604C107.088 40.2404 104.488 42.8404 99.8481 42.8404L99.6881 42.4004L99.7681 42.8404H88.8081C85.8081 42.8004 83.6881 40.2004 83.6881 36.9204V36.5604H86.2481C86.2481 39.1604 87.5281 40.6404 89.6081 40.6404H99.1281C102.368 40.6404 104.488 39.1204 104.488 34.5604V29.7604C103.208 31.5204 101.168 32.4404 98.6481 32.4404H90.2481C85.7281 32.4404 82.8081 29.4404 82.8081 24.1604V19.6804C82.8081 14.3604 85.7281 11.4004 90.2481 11.4004H99.6481ZM104.488 23.7604V20.0804C104.488 15.4404 101.888 13.5604 98.9281 13.5604H90.9281C87.9681 13.5604 85.4081 15.4404 85.4081 20.0804V23.7604C85.4081 28.3604 87.9681 30.2404 90.9281 30.2404H98.9281C101.888 30.2404 104.488 28.3604 104.488 23.7604ZM119.307 11.4004H122.187V13.5604H119.027C116.067 13.5604 113.507 15.4404 113.507 20.0804V32.4404H110.907V11.4004H113.507V15.4804C114.467 12.5604 116.547 11.4004 119.307 11.4004ZM141.478 11.4004C145.958 11.4004 148.878 14.3604 148.878 19.6804V24.1604C148.878 29.4404 145.958 32.4404 141.478 32.4404H130.678C126.198 32.4404 123.278 29.4804 123.238 24.2404V19.6804C123.238 14.3604 126.158 11.4004 130.678 11.4004H141.478ZM146.318 23.7604V20.0804C146.318 15.4404 143.718 13.5604 140.758 13.5604H131.358C128.398 13.5604 125.838 15.4404 125.838 20.0804V23.7604C125.838 28.3604 128.398 30.2404 131.358 30.2404H140.758C143.718 30.2404 146.318 28.3604 146.318 23.7604ZM173.831 23.7604V11.4804H176.431V24.1604C176.431 29.4404 173.471 32.4404 168.991 32.4404H159.551C155.071 32.4404 152.151 29.4404 152.151 24.1604V11.4004H154.751V23.7604C154.751 28.3604 157.311 30.2404 160.271 30.2404H168.271C171.231 30.2404 173.831 28.3604 173.831 23.7604ZM196.003 11.4004C200.523 11.4004 203.443 14.3604 203.443 19.6804V24.1604C203.443 29.4404 200.523 32.4404 196.003 32.4404H188.363C185.843 32.4404 183.843 31.5204 182.563 29.7604V43.8404H179.963V19.6804C179.963 14.3604 182.883 11.4004 187.363 11.4004H196.003ZM200.843 23.7604V20.0804C200.843 15.4404 198.243 13.5604 195.283 13.5604H188.083C185.123 13.5604 182.563 15.4404 182.563 20.0804V23.7604C182.563 28.3604 185.123 30.2404 188.083 30.2404H195.283C198.243 30.2404 200.843 28.3604 200.843 23.7604Z" fill="url(#paint0_linear_2609_11)"/>
<defs>
<linearGradient id="paint0_linear_2609_11" x1="0" y1="21.4404" x2="205" y2="21.4404" gradientUnits="userSpaceOnUse">
<stop stop-color="#C8A96A"/>
<stop offset="0.5" stop-color="#E4558A"/>
<stop offset="1" stop-color="#58CFFF"/>
</linearGradient>
</defs>
</svg>
