<svg width="631" height="603" viewBox="0 0 631 603" fill="none" xmlns="http://www.w3.org/2000/svg">
<g filter="url(#filter0_d_2527_29)">
<g filter="url(#filter1_dd_2527_29)">
<path d="M206.014 41.0443L203.635 36.0855V36.0855L206.014 41.0443ZM396.052 21.1507L397.352 15.8065L396.052 21.1507ZM555.6 126.078L551.206 129.387V129.387L555.6 126.078ZM612.227 308.192L617.722 308.428L612.227 308.192ZM540.225 484.816L544.32 488.488V488.488L540.225 484.816ZM372.282 575.767L371.443 570.332V570.332L372.282 575.767ZM184.641 539.755L187.434 535.017H187.434L184.641 539.755ZM90.0698 438.278C88.511 435.671 85.1339 434.821 82.5268 436.38C79.9197 437.938 79.0698 441.315 80.6286 443.923L85.3492 441.1L90.0698 438.278ZM71.7603 176.728L76.7452 179.052C103.882 120.843 150.406 73.8221 208.393 46.0032L206.014 41.0443L203.635 36.0855C143.357 65.0036 94.9892 113.885 66.7754 174.404L71.7603 176.728ZM206.014 41.0443L208.393 46.0032C266.38 18.1842 332.241 11.2895 394.752 26.4949L396.052 21.1507L397.352 15.8065C332.373 0.00104332 263.913 7.16744 203.635 36.0855L206.014 41.0443ZM396.052 21.1507L394.752 26.4949C457.263 41.7002 512.554 78.0638 551.206 129.387L555.6 126.078L559.993 122.77C519.809 69.4123 462.33 31.612 397.352 15.8065L396.052 21.1507ZM555.6 126.078L551.206 129.387C589.858 180.71 609.481 243.817 606.732 307.957L612.227 308.192L617.722 308.428C620.58 241.74 600.177 176.127 559.993 122.77L555.6 126.078ZM612.227 308.192L606.732 307.957C603.983 372.096 579.033 433.302 536.13 481.145L540.225 484.816L544.32 488.488C588.922 438.75 614.864 375.116 617.722 308.428L612.227 308.192ZM540.225 484.816L536.13 481.145C493.228 528.988 435.026 560.508 371.443 570.332L372.282 575.767L373.122 581.203C439.215 570.991 499.718 538.226 544.32 488.488L540.225 484.816ZM372.282 575.767L371.443 570.332C307.858 580.156 242.829 567.675 187.434 535.017L184.641 539.755L181.848 544.493C239.432 578.441 307.029 591.414 373.122 581.203L372.282 575.767ZM184.641 539.755L187.434 535.017C147.144 511.264 113.764 477.907 90.0698 438.278L85.3492 441.1L80.6286 443.923C105.263 485.123 139.964 519.801 181.848 544.493L184.641 539.755Z" fill="#FF00AA"/>
</g>
<path d="M60.0185 390.917L4.34645 248.229C3.08762 245.002 5.41083 241.504 8.87292 241.413L55.2565 240.192C57.3597 240.137 59.2725 241.404 60.0418 243.362L116.578 387.272C117.866 390.552 115.448 394.1 111.924 394.1H64.6765C62.6165 394.1 60.7673 392.837 60.0185 390.917Z" fill="white"/>
<path d="M129.792 377.631L101.451 305.362C101.006 304.227 100.991 302.968 101.409 301.822L122.561 243.885C123.281 241.913 125.157 240.6 127.258 240.6H174.133C177.599 240.6 180.014 244.042 178.834 247.302L131.663 377.606C131.349 378.473 130.129 378.489 129.792 377.631Z" fill="#FF00AA"/>
<circle cx="218.26" cy="198.1" r="29" fill="#FF00AA"/>
<path d="M238.76 240.1H197.76C194.999 240.1 192.76 242.339 192.76 245.1V390.1C192.76 392.862 194.999 395.1 197.76 395.1H238.76C241.522 395.1 243.76 392.862 243.76 390.1V245.1C243.76 242.339 241.522 240.1 238.76 240.1Z" fill="white"/>
<path d="M308.26 174.1H267.26C264.499 174.1 262.26 176.339 262.26 179.1V390.1C262.26 392.862 264.499 395.1 267.26 395.1H308.26C311.022 395.1 313.26 392.862 313.26 390.1V179.1C313.26 176.339 311.022 174.1 308.26 174.1Z" fill="white"/>
<path d="M365.875 239.599H338.26C335.499 239.599 333.26 241.837 333.26 244.599V390.099C333.26 392.86 335.499 395.099 338.26 395.099H382.26C385.022 395.099 387.26 392.86 387.26 390.099V304.849C387.26 302.047 387.763 299.227 389.174 296.805C392.217 291.585 395.991 288.884 403.016 287.299C405.483 286.742 408.045 286.649 410.542 287.052C417.591 288.19 421.508 290.797 425.177 296.257C427.026 299.009 427.76 302.335 427.76 305.65V390.099C427.76 392.86 429.999 395.099 432.76 395.099H476.76C479.522 395.099 481.76 392.86 481.76 390.099V305.834C481.76 302.402 482.565 298.971 484.485 296.127C488.437 290.272 492.237 287.711 498.832 286.839C500.441 286.626 502.079 286.648 503.689 286.854C511.678 287.876 515.861 290.468 519.729 296.293C521.543 299.024 522.26 302.314 522.26 305.592V390.099C522.26 392.86 524.499 395.099 527.26 395.099H569.76C572.522 395.099 574.76 392.86 574.76 390.099V300.599C572.149 281.12 568.821 271.608 558.26 258.099C521.302 217.895 465.095 249.136 463.26 258.099C463.721 244.565 388.659 214.957 363.26 270.099C363.26 270.099 358.846 270.911 357.76 267.599L370.149 247.194C372.172 243.862 369.773 239.599 365.875 239.599Z" fill="white"/>
<path d="M356.524 236.509C352.8 236.509 349.606 235.996 346.943 234.971C344.299 233.963 342.193 232.587 340.628 230.842C339.063 229.096 338.046 227.135 337.578 224.958L348.212 223.528C348.536 224.355 349.049 225.129 349.75 225.849C350.452 226.568 351.379 227.144 352.53 227.576C353.7 228.026 355.121 228.251 356.794 228.251C359.295 228.251 361.355 227.639 362.975 226.415C364.612 225.21 365.431 223.186 365.431 220.343V212.759H364.945C364.441 213.911 363.685 214.999 362.678 216.025C361.67 217.05 360.375 217.887 358.792 218.535C357.208 219.182 355.319 219.506 353.124 219.506C350.011 219.506 347.177 218.787 344.622 217.347C342.086 215.89 340.061 213.668 338.55 210.681C337.057 207.676 336.31 203.88 336.31 199.292C336.31 194.596 337.075 190.673 338.604 187.525C340.133 184.376 342.167 182.019 344.703 180.454C347.258 178.888 350.056 178.106 353.097 178.106C355.418 178.106 357.361 178.502 358.926 179.293C360.492 180.067 361.751 181.039 362.705 182.208C363.676 183.36 364.423 184.493 364.945 185.609H365.377V178.646H376.793V220.505C376.793 224.031 375.929 226.982 374.202 229.357C372.475 231.732 370.082 233.513 367.023 234.701C363.982 235.906 360.483 236.509 356.524 236.509ZM356.767 210.87C358.621 210.87 360.186 210.411 361.463 209.494C362.759 208.558 363.748 207.227 364.432 205.499C365.134 203.754 365.485 201.667 365.485 199.238C365.485 196.809 365.143 194.704 364.459 192.923C363.775 191.123 362.786 189.729 361.49 188.739C360.195 187.75 358.621 187.255 356.767 187.255C354.878 187.255 353.286 187.768 351.99 188.793C350.695 189.801 349.714 191.204 349.049 193.004C348.383 194.803 348.05 196.881 348.05 199.238C348.05 201.631 348.383 203.7 349.049 205.445C349.732 207.173 350.713 208.513 351.99 209.467C353.286 210.402 354.878 210.87 356.767 210.87ZM385.942 220.1V178.646H397.088V185.879H397.52C398.276 183.306 399.544 181.362 401.326 180.049C403.107 178.718 405.158 178.052 407.479 178.052C408.055 178.052 408.676 178.088 409.341 178.16C410.007 178.232 410.592 178.331 411.095 178.457V188.658C410.556 188.496 409.809 188.352 408.855 188.227C407.902 188.101 407.029 188.038 406.238 188.038C404.546 188.038 403.035 188.406 401.703 189.144C400.39 189.864 399.346 190.871 398.573 192.167C397.817 193.462 397.439 194.956 397.439 196.647V220.1H385.942ZM433.84 220.91C429.648 220.91 426.022 220.019 422.964 218.238C419.923 216.439 417.575 213.938 415.92 210.735C414.264 207.514 413.437 203.781 413.437 199.535C413.437 195.253 414.264 191.51 415.92 188.307C417.575 185.087 419.923 182.586 422.964 180.805C426.022 179.005 429.648 178.106 433.84 178.106C438.032 178.106 441.649 179.005 444.69 180.805C447.748 182.586 450.105 185.087 451.761 188.307C453.416 191.51 454.244 195.253 454.244 199.535C454.244 203.781 453.416 207.514 451.761 210.735C450.105 213.938 447.748 216.439 444.69 218.238C441.649 220.019 438.032 220.91 433.84 220.91ZM433.894 212.004C435.801 212.004 437.394 211.464 438.671 210.384C439.949 209.287 440.911 207.793 441.559 205.904C442.225 204.015 442.557 201.865 442.557 199.454C442.557 197.043 442.225 194.893 441.559 193.004C440.911 191.114 439.949 189.621 438.671 188.523C437.394 187.426 435.801 186.877 433.894 186.877C431.969 186.877 430.35 187.426 429.036 188.523C427.741 189.621 426.76 191.114 426.094 193.004C425.447 194.893 425.123 197.043 425.123 199.454C425.123 201.865 425.447 204.015 426.094 205.904C426.76 207.793 427.741 209.287 429.036 210.384C430.35 211.464 431.969 212.004 433.894 212.004ZM488.303 202.45V178.646H499.8V220.1H488.762V212.57H488.33C487.395 214.999 485.838 216.951 483.661 218.427C481.502 219.902 478.866 220.64 475.754 220.64C472.983 220.64 470.545 220.01 468.44 218.751C466.334 217.491 464.688 215.701 463.501 213.38C462.331 211.059 461.737 208.279 461.719 205.04V178.646H473.217V202.989C473.235 205.436 473.891 207.37 475.187 208.792C476.482 210.213 478.218 210.924 480.396 210.924C481.781 210.924 483.076 210.609 484.282 209.979C485.487 209.332 486.459 208.378 487.197 207.119C487.952 205.859 488.321 204.303 488.303 202.45ZM508.997 235.646V178.646H520.332V185.609H520.845C521.349 184.493 522.077 183.36 523.031 182.208C524.002 181.039 525.262 180.067 526.809 179.293C528.375 178.502 530.318 178.106 532.639 178.106C535.662 178.106 538.45 178.897 541.005 180.481C543.56 182.046 545.602 184.412 547.132 187.579C548.661 190.727 549.426 194.677 549.426 199.427C549.426 204.051 548.679 207.955 547.186 211.14C545.71 214.307 543.695 216.709 541.14 218.346C538.603 219.965 535.76 220.775 532.612 220.775C530.381 220.775 528.483 220.406 526.917 219.668C525.37 218.931 524.101 218.004 523.112 216.888C522.122 215.755 521.367 214.612 520.845 213.461H520.494V235.646H508.997ZM520.251 199.373C520.251 201.838 520.593 203.988 521.277 205.823C521.96 207.658 522.95 209.089 524.245 210.114C525.541 211.122 527.115 211.626 528.968 211.626C530.84 211.626 532.423 211.113 533.718 210.087C535.014 209.044 535.994 207.604 536.66 205.769C537.344 203.916 537.686 201.784 537.686 199.373C537.686 196.98 537.353 194.875 536.687 193.057C536.021 191.24 535.041 189.819 533.745 188.793C532.45 187.768 530.858 187.255 528.968 187.255C527.097 187.255 525.514 187.75 524.218 188.739C522.941 189.729 521.96 191.132 521.277 192.95C520.593 194.767 520.251 196.908 520.251 199.373Z" fill="white"/>
<circle cx="73.7603" cy="173.1" r="13" fill="#FF00AA"/>
<circle cx="565.76" cy="452.1" r="13" fill="#FF00AA"/>
</g>
<defs>
<filter id="filter0_d_2527_29" x="0" y="7.6001" width="621.986" height="585" filterUnits="userSpaceOnUse" color-interpolation-filters="sRGB">
<feFlood flood-opacity="0" result="BackgroundImageFix"/>
<feColorMatrix in="SourceAlpha" type="matrix" values="0 0 0 0 0 0 0 0 0 0 0 0 0 0 0 0 0 0 127 0" result="hardAlpha"/>
<feOffset dy="4"/>
<feGaussianBlur stdDeviation="2"/>
<feComposite in2="hardAlpha" operator="out"/>
<feColorMatrix type="matrix" values="0 0 0 0 0 0 0 0 0 0 0 0 0 0 0 0 0 0 0.25 0"/>
<feBlend mode="normal" in2="BackgroundImageFix" result="effect1_dropShadow_2527_29"/>
<feBlend mode="normal" in="SourceGraphic" in2="effect1_dropShadow_2527_29" result="shape"/>
</filter>
<filter id="filter1_dd_2527_29" x="54.1754" y="9.72748e-05" width="576.41" height="602.2" filterUnits="userSpaceOnUse" color-interpolation-filters="sRGB">
<feFlood flood-opacity="0" result="BackgroundImageFix"/>
<feColorMatrix in="SourceAlpha" type="matrix" values="0 0 0 0 0 0 0 0 0 0 0 0 0 0 0 0 0 0 127 0" result="hardAlpha"/>
<feOffset dy="4"/>
<feComposite in2="hardAlpha" operator="out"/>
<feColorMatrix type="matrix" values="0 0 0 0 1 0 0 0 0 0 0 0 0 0 0.7 0 0 0 0.3 0"/>
<feBlend mode="normal" in2="BackgroundImageFix" result="effect1_dropShadow_2527_29"/>
<feColorMatrix in="SourceAlpha" type="matrix" values="0 0 0 0 0 0 0 0 0 0 0 0 0 0 0 0 0 0 127 0" result="hardAlpha"/>
<feOffset dy="5"/>
<feGaussianBlur stdDeviation="6.3"/>
<feComposite in2="hardAlpha" operator="out"/>
<feColorMatrix type="matrix" values="0 0 0 0 0.998948 0 0 0 0 0 0 0 0 0 0.715913 0 0 0 1 0"/>
<feBlend mode="normal" in2="effect1_dropShadow_2527_29" result="effect2_dropShadow_2527_29"/>
<feBlend mode="normal" in="SourceGraphic" in2="effect2_dropShadow_2527_29" result="shape"/>
</filter>
</defs>
</svg>
