<svg width="222" height="52" viewBox="0 0 222 52" fill="none" xmlns="http://www.w3.org/2000/svg">
<path d="M22.4801 11.3197C22.9867 11.5597 23.4134 11.8931 23.7601 12.3197C24.1067 12.7197 24.3601 13.1731 24.5201 13.6797C24.6801 14.1597 24.7334 14.6797 24.6801 15.2397C24.6534 15.7731 24.5201 16.2931 24.2801 16.7997L15.8401 33.5197C15.4667 34.2131 14.9601 34.7597 14.3201 35.1597C13.6801 35.5597 12.9734 35.7597 12.2001 35.7597H12.1601C11.3867 35.7331 10.6667 35.5197 10.0001 35.1197C9.36008 34.6931 8.86675 34.1331 8.52008 33.4397L0.440078 16.9197C0.200078 16.4131 0.0667448 15.8931 0.0400781 15.3597C0.0134115 14.7997 0.0800781 14.2797 0.240078 13.7997C0.426745 13.2931 0.693411 12.8397 1.04008 12.4397C1.38674 12.0131 1.81341 11.6797 2.32008 11.4397C2.82674 11.1997 3.34674 11.0664 3.88008 11.0397C4.44008 11.0131 4.96008 11.0931 5.44008 11.2797C5.94675 11.4397 6.40008 11.6931 6.80008 12.0397C7.22675 12.3864 7.56008 12.8131 7.80008 13.3197L12.2401 22.4797L17.0001 13.1197C17.2401 12.6131 17.5601 12.1864 17.9601 11.8397C18.3867 11.4931 18.8534 11.2397 19.3601 11.0797C19.8667 10.9197 20.3867 10.8531 20.9201 10.8797C21.4534 10.9064 21.9734 11.0531 22.4801 11.3197ZM31.5485 8.31972C30.9885 8.31972 30.4552 8.21306 29.9485 7.99973C29.4685 7.78639 29.0418 7.50639 28.6685 7.15972C28.3218 6.78639 28.0418 6.35972 27.8285 5.87972C27.6152 5.37306 27.5085 4.83973 27.5085 4.27973C27.5085 3.71973 27.6152 3.19972 27.8285 2.71972C28.0418 2.23972 28.3218 1.81306 28.6685 1.43972C29.0418 1.06639 29.4685 0.773058 29.9485 0.559724C30.4552 0.346392 30.9885 0.239726 31.5485 0.239726C32.1085 0.239726 32.6285 0.346392 33.1085 0.559724C33.5885 0.773058 34.0018 1.06639 34.3485 1.43972C34.7218 1.81306 35.0152 2.23972 35.2285 2.71972C35.4418 3.19972 35.5485 3.71973 35.5485 4.27973C35.5485 4.83973 35.4418 5.37306 35.2285 5.87972C35.0152 6.35972 34.7218 6.78639 34.3485 7.15972C34.0018 7.50639 33.5885 7.78639 33.1085 7.99973C32.6285 8.21306 32.1085 8.31972 31.5485 8.31972ZM31.3085 35.7997C30.7485 35.7997 30.2152 35.6931 29.7085 35.4797C29.2285 35.2664 28.8018 34.9864 28.4285 34.6397C28.0552 34.2664 27.7618 33.8264 27.5485 33.3197C27.3352 32.8131 27.2285 32.2797 27.2285 31.7197V14.9197C27.2285 14.3597 27.3352 13.8397 27.5485 13.3597C27.7618 12.8531 28.0552 12.4131 28.4285 12.0397C28.8018 11.6664 29.2285 11.3731 29.7085 11.1597C30.2152 10.9464 30.7485 10.8397 31.3085 10.8397C31.8685 10.8397 32.4018 10.9464 32.9085 11.1597C33.4152 11.3731 33.8418 11.6664 34.1885 12.0397C34.5618 12.4131 34.8552 12.8531 35.0685 13.3597C35.2818 13.8397 35.3885 14.3597 35.3885 14.9197V31.7197C35.3885 32.8664 34.9885 33.8397 34.1885 34.6397C33.4152 35.4131 32.4552 35.7997 31.3085 35.7997ZM42.5995 -0.000276089C43.1595 -0.000276089 43.6795 0.106391 44.1595 0.319725C44.6661 0.533058 45.1061 0.826392 45.4795 1.19973C45.8528 1.57306 46.1461 2.01306 46.3595 2.51972C46.5728 2.99973 46.6795 3.51973 46.6795 4.07973V31.5997C46.6795 32.1597 46.5728 32.6931 46.3595 33.1997C46.1461 33.6797 45.8528 34.1064 45.4795 34.4797C45.1061 34.8531 44.6661 35.1464 44.1595 35.3597C43.6795 35.5731 43.1595 35.6797 42.5995 35.6797C42.0395 35.6797 41.5061 35.5731 40.9995 35.3597C40.5195 35.1464 40.0928 34.8531 39.7195 34.4797C39.3461 34.1064 39.0528 33.6797 38.8395 33.1997C38.6261 32.6931 38.5195 32.1597 38.5195 31.5997V4.07973C38.5195 3.51973 38.6261 2.99973 38.8395 2.51972C39.0528 2.01306 39.3461 1.57306 39.7195 1.19973C40.0928 0.826392 40.5195 0.533058 40.9995 0.319725C41.5061 0.106391 42.0395 -0.000276089 42.5995 -0.000276089ZM83.0904 12.4397C83.9437 12.9197 84.6904 13.5064 85.3304 14.1997C85.9971 14.8931 86.5571 15.6664 87.0104 16.5197C87.9437 18.2797 88.3837 20.2931 88.3304 22.5597C88.3037 24.1064 88.2904 25.4264 88.2904 26.5197C88.2904 27.6131 88.2771 28.5597 88.2504 29.3597V31.8397C88.1971 32.9597 87.7837 33.9064 87.0104 34.6797C86.2371 35.4531 85.2904 35.8397 84.1704 35.8397H84.0504C83.4904 35.8131 82.9571 35.6931 82.4504 35.4797C81.9704 35.2397 81.5437 34.9331 81.1704 34.5597C80.8237 34.1864 80.5437 33.7464 80.3304 33.2397C80.1437 32.7331 80.0637 32.1997 80.0904 31.6397V29.2797C80.1171 28.4797 80.1304 27.5331 80.1304 26.4397C80.1304 25.3197 80.1571 23.9731 80.2104 22.3997C80.2104 20.9331 79.7837 19.9464 78.9304 19.4397C78.4504 19.1464 77.8637 19.0131 77.1704 19.0397C76.5037 19.0664 75.8637 19.2531 75.2504 19.5997C74.7437 19.8931 74.2504 20.3731 73.7704 21.0397C73.3171 21.6797 73.0904 22.6264 73.0904 23.8797V24.2397C73.0637 25.3331 73.0504 26.2931 73.0504 27.1197C73.0504 27.9464 73.0504 28.6664 73.0504 29.2797C73.0237 29.8131 73.0104 30.2931 73.0104 30.7197C73.0104 31.1197 73.0104 31.4797 73.0104 31.7997C72.9837 32.9197 72.5704 33.8664 71.7704 34.6397C70.9971 35.3864 70.0504 35.7597 68.9304 35.7597H68.8504C68.2904 35.7597 67.7571 35.6531 67.2504 35.4397C66.7704 35.1997 66.3437 34.8931 65.9704 34.5197C65.6237 34.1197 65.3437 33.6797 65.1304 33.1997C64.9437 32.6931 64.8504 32.1597 64.8504 31.5997C64.8504 31.3064 64.8504 30.9731 64.8504 30.5997C64.8504 30.2264 64.8637 29.7731 64.8904 29.2397C64.8904 28.4397 64.8904 27.4931 64.8904 26.3997C64.8904 25.2797 64.9171 23.9331 64.9704 22.3597C64.9704 20.8931 64.5571 19.9064 63.7304 19.3997C63.2237 19.1064 62.6237 18.9731 61.9304 18.9997C61.2637 19.0264 60.6237 19.2131 60.0104 19.5597C59.5037 19.8531 59.0104 20.3331 58.5304 20.9997C58.0771 21.6397 57.8637 22.5864 57.8904 23.8397C57.8904 23.9731 57.8637 24.1731 57.8104 24.4397V31.6397C57.8104 32.1997 57.7037 32.7331 57.4904 33.2397C57.2771 33.7197 56.9837 34.1464 56.6104 34.5197C56.2637 34.8931 55.8371 35.1864 55.3304 35.3997C54.8237 35.6131 54.2904 35.7197 53.7304 35.7197C53.1704 35.7197 52.6371 35.6131 52.1304 35.3997C51.6504 35.1864 51.2237 34.8931 50.8504 34.5197C50.4771 34.1464 50.1837 33.7197 49.9704 33.2397C49.7571 32.7331 49.6504 32.1997 49.6504 31.6397V14.9997C49.6504 14.4397 49.7571 13.9197 49.9704 13.4397C50.1837 12.9331 50.4771 12.4931 50.8504 12.1197C51.2237 11.7464 51.6504 11.4531 52.1304 11.2397C52.6371 11.0264 53.1704 10.9197 53.7304 10.9197C54.3171 10.9197 54.8504 11.0264 55.3304 11.2397C55.8371 11.4531 56.2771 11.7464 56.6504 12.1197C58.2771 11.3197 60.0237 10.8931 61.8904 10.8397C62.9837 10.8131 64.0237 10.9331 65.0104 11.1997C66.0237 11.4664 66.9704 11.8664 67.8504 12.3997C68.4904 12.7731 69.0637 13.1864 69.5704 13.6397C70.1304 13.2131 70.6637 12.8531 71.1704 12.5597C72.1037 12.0264 73.0637 11.6264 74.0504 11.3597C75.0637 11.0664 76.0904 10.9064 77.1304 10.8797C78.1971 10.8531 79.2371 10.9731 80.2504 11.2397C81.2637 11.5064 82.2104 11.9064 83.0904 12.4397ZM113.973 38.5197C114.4 38.8664 114.733 39.2797 114.973 39.7597C115.24 40.2397 115.4 40.7331 115.453 41.2397C115.533 41.7731 115.493 42.2931 115.333 42.7997C115.173 43.3331 114.92 43.8131 114.573 44.2397C113.026 46.2397 111.106 47.7064 108.813 48.6397C107.08 49.3864 105.2 49.7597 103.173 49.7597C103.04 49.7597 102.906 49.7597 102.773 49.7597C102.64 49.7597 102.506 49.7464 102.373 49.7197C101.253 49.6664 100.173 49.4931 99.1329 49.1997C98.0929 48.9331 97.1062 48.5464 96.1729 48.0397C94.1196 46.9731 92.5462 45.5864 91.4529 43.8797C91.1596 43.3997 90.9729 42.8931 90.8929 42.3597C90.7862 41.8531 90.7996 41.3331 90.9329 40.7997C91.0396 40.2931 91.2396 39.8131 91.5329 39.3597C91.8529 38.9331 92.2529 38.5597 92.7329 38.2397C93.2129 37.9464 93.7062 37.7464 94.2129 37.6397C94.7462 37.5597 95.2662 37.5731 95.7729 37.6797C96.2796 37.8131 96.7596 38.0264 97.2129 38.3197C97.6662 38.6397 98.0396 39.0397 98.3329 39.5197C98.6262 39.9731 99.1729 40.4131 99.9729 40.8397C100.8 41.2931 101.746 41.5464 102.813 41.5997C103.186 41.6264 103.6 41.6131 104.053 41.5597C104.506 41.5064 104.96 41.3864 105.413 41.1997C105.893 41.0397 106.373 40.7864 106.853 40.4397C107.333 40.1197 107.786 39.6931 108.213 39.1597C108.56 38.7331 108.973 38.3864 109.453 38.1197C109.933 37.8797 110.426 37.7197 110.933 37.6397C111.466 37.5864 111.986 37.6264 112.493 37.7597C113.026 37.9197 113.52 38.1731 113.973 38.5197ZM111.373 2.67973C111.986 2.67973 112.56 2.79973 113.093 3.03973C113.626 3.25306 114.093 3.55973 114.493 3.95973C114.893 4.35972 115.2 4.82639 115.413 5.35972C115.653 5.89306 115.773 6.46639 115.773 7.07973C115.773 7.69306 115.653 8.26639 115.413 8.79973C115.2 9.30639 114.893 9.75972 114.493 10.1597C114.093 10.5597 113.626 10.8797 113.093 11.1197C112.56 11.3331 111.986 11.4397 111.373 11.4397C110.76 11.4397 110.186 11.3331 109.653 11.1197C109.146 10.8797 108.693 10.5597 108.293 10.1597C107.893 9.75972 107.573 9.30639 107.333 8.79973C107.12 8.26639 107.013 7.69306 107.013 7.07973C107.013 6.46639 107.12 5.89306 107.333 5.35972C107.573 4.82639 107.893 4.35972 108.293 3.95973C108.693 3.55973 109.146 3.25306 109.653 3.03973C110.186 2.79973 110.76 2.67973 111.373 2.67973ZM94.6529 32.2797C93.5062 31.1064 92.6396 29.7197 92.0529 28.1197C91.4662 26.4931 91.1996 24.7331 91.2529 22.8397C91.2796 20.9997 91.6262 19.3064 92.2929 17.7597C92.9329 16.2131 93.8529 14.9064 95.0529 13.8397C96.1462 12.8264 97.3729 12.0531 98.7329 11.5197C100.12 10.9597 101.573 10.6797 103.093 10.6797C104.64 10.6797 106.093 10.9597 107.453 11.5197C108.92 12.0797 110.213 12.9197 111.333 14.0397C112.426 15.1331 113.28 16.4531 113.893 17.9997C114.186 18.7731 114.4 19.5731 114.533 20.3997C114.693 21.2264 114.76 22.0931 114.733 22.9997C114.733 24.9197 114.4 26.6664 113.733 28.2397C113.093 29.7864 112.186 31.1464 111.013 32.3197C109.893 33.4131 108.6 34.2397 107.133 34.7997C105.72 35.3597 104.266 35.6397 102.773 35.6397C101.253 35.6397 99.8129 35.3597 98.4529 34.7997C96.9862 34.2397 95.7196 33.3997 94.6529 32.2797ZM99.4129 22.9997C99.3596 24.5997 99.7196 25.7864 100.493 26.5597C100.866 26.9597 101.266 27.2131 101.693 27.3197C102.146 27.4264 102.506 27.4797 102.773 27.4797C103.2 27.4797 103.64 27.3997 104.093 27.2397C104.546 27.0797 104.96 26.8264 105.333 26.4797C105.706 26.1064 106 25.6397 106.213 25.0797C106.453 24.4931 106.573 23.7731 106.573 22.9197C106.6 21.5597 106.253 20.5197 105.533 19.7997C104.893 19.1597 104.08 18.8397 103.093 18.8397C102.933 18.8397 102.653 18.8797 102.253 18.9597C101.88 19.0131 101.48 19.1731 101.053 19.4397C100.626 19.7064 100.253 20.1197 99.9329 20.6797C99.6129 21.2397 99.4396 22.0131 99.4129 22.9997ZM137.012 12.9997C137.438 13.3464 137.772 13.7597 138.012 14.2397C138.252 14.7197 138.398 15.2264 138.452 15.7597C138.505 16.2664 138.452 16.7864 138.292 17.3197C138.132 17.8264 137.878 18.2931 137.532 18.7197C137.132 19.2264 136.652 19.5997 136.092 19.8397C135.558 20.0797 134.998 20.1997 134.412 20.1997C133.958 20.1997 133.505 20.1331 133.052 19.9997C132.598 19.8397 132.185 19.5997 131.812 19.2797C131.572 19.0664 131.252 18.9597 130.852 18.9597C130.478 18.9331 130.078 19.0264 129.652 19.2397C129.465 19.3197 129.185 19.4931 128.812 19.7597C128.438 19.9997 128.065 20.3864 127.692 20.9197C127.318 21.4264 126.972 22.0931 126.652 22.9197C126.358 23.7464 126.172 24.7864 126.092 26.0397V26.1597V31.6397C126.092 32.1997 125.985 32.7331 125.772 33.2397C125.558 33.7197 125.265 34.1464 124.892 34.5197C124.545 34.8931 124.118 35.1864 123.612 35.3997C123.105 35.6131 122.572 35.7197 122.012 35.7197C121.452 35.7197 120.918 35.6131 120.412 35.3997C119.932 35.1864 119.505 34.8931 119.132 34.5197C118.758 34.1464 118.465 33.7197 118.252 33.2397C118.038 32.7331 117.932 32.1997 117.932 31.6397V15.0397C117.932 14.4797 118.038 13.9597 118.252 13.4797C118.465 12.9731 118.758 12.5331 119.132 12.1597C119.505 11.7864 119.932 11.4931 120.412 11.2797C120.918 11.0664 121.452 10.9597 122.012 10.9597C122.625 10.9597 123.198 11.0931 123.732 11.3597C124.292 11.5997 124.758 11.9464 125.132 12.3997C125.478 12.1864 125.892 11.9731 126.372 11.7597C128.212 10.9597 130.078 10.6664 131.972 10.8797C133.892 11.0931 135.572 11.7997 137.012 12.9997ZM161.449 14.1597C162.542 15.2531 163.396 16.5731 164.009 18.1197C164.302 18.8931 164.516 19.6931 164.649 20.5197C164.809 21.3464 164.876 22.2131 164.849 23.1197C164.849 25.0397 164.516 26.7864 163.849 28.3597C163.209 29.9064 162.302 31.2664 161.129 32.4397C160.009 33.5331 158.716 34.3597 157.249 34.9197C155.836 35.4797 154.382 35.7597 152.889 35.7597C151.369 35.7597 149.929 35.4797 148.569 34.9197C147.102 34.3597 145.836 33.5197 144.769 32.3997C143.622 31.2264 142.756 29.8397 142.169 28.2397C141.582 26.6131 141.316 24.8531 141.369 22.9597C141.396 22.0264 141.489 21.1464 141.649 20.3197C141.809 19.4664 142.062 18.6531 142.409 17.8797C143.049 16.3597 143.956 15.0531 145.129 13.9597C146.249 12.9464 147.489 12.1731 148.849 11.6397C150.236 11.0797 151.689 10.7997 153.209 10.7997C154.756 10.7997 156.209 11.0797 157.569 11.6397C159.089 12.2264 160.382 13.0664 161.449 14.1597ZM152.889 27.5997C153.316 27.5997 153.756 27.5197 154.209 27.3597C154.662 27.1997 155.062 26.9464 155.409 26.5997C155.782 26.2264 156.089 25.7597 156.329 25.1997C156.569 24.6131 156.689 23.8931 156.689 23.0397C156.716 21.6797 156.369 20.6397 155.649 19.9197C155.009 19.2797 154.196 18.9597 153.209 18.9597C153.049 18.9597 152.769 18.9997 152.369 19.0797C151.996 19.1331 151.596 19.2931 151.169 19.5597C150.742 19.8264 150.369 20.2397 150.049 20.7997C149.729 21.3597 149.556 22.1331 149.529 23.1197C149.476 24.7197 149.836 25.9064 150.609 26.6797C150.982 27.0797 151.382 27.3331 151.809 27.4397C152.262 27.5464 152.622 27.5997 152.889 27.5997ZM187.175 10.7997C187.735 10.7997 188.255 10.9064 188.735 11.1197C189.242 11.3331 189.682 11.6264 190.055 11.9997C190.429 12.3464 190.722 12.7731 190.935 13.2797C191.149 13.7864 191.255 14.3197 191.255 14.8797V31.5197C191.255 32.0797 191.149 32.6131 190.935 33.1197C190.722 33.5997 190.429 34.0264 190.055 34.3997C189.682 34.7731 189.242 35.0664 188.735 35.2797C188.255 35.4931 187.735 35.5997 187.175 35.5997C186.589 35.5997 186.042 35.4931 185.535 35.2797C185.055 35.0664 184.629 34.7731 184.255 34.3997C182.629 35.1997 180.882 35.6264 179.015 35.6797H178.815C177.775 35.6797 176.762 35.5464 175.775 35.2797C174.815 35.0131 173.909 34.6264 173.055 34.1197C172.202 33.6397 171.442 33.0531 170.775 32.3597C170.135 31.6664 169.589 30.8931 169.135 30.0397C168.202 28.2264 167.749 26.2131 167.775 23.9997C167.829 22.4264 167.855 21.0931 167.855 19.9997C167.855 18.9064 167.869 17.9597 167.895 17.1597V14.7197C167.895 14.1597 168.002 13.6397 168.215 13.1597C168.455 12.6531 168.762 12.2264 169.135 11.8797C169.535 11.5064 169.975 11.2264 170.455 11.0397C170.962 10.8264 171.495 10.7331 172.055 10.7597C172.615 10.7597 173.135 10.8797 173.615 11.1197C174.122 11.3331 174.549 11.6264 174.895 11.9997C175.269 12.3731 175.549 12.8131 175.735 13.3197C175.949 13.8264 176.055 14.3597 176.055 14.9197C176.055 15.2131 176.055 15.5464 176.055 15.9197C176.055 16.2664 176.042 16.7064 176.015 17.2397C176.015 18.0397 176.015 18.9997 176.015 20.1197C176.015 21.2131 175.989 22.5597 175.935 24.1597C175.935 25.6264 176.349 26.6131 177.175 27.1197C177.682 27.4131 178.269 27.5464 178.935 27.5197C179.629 27.4931 180.282 27.3064 180.895 26.9597C181.402 26.6664 181.882 26.1997 182.335 25.5597C182.815 24.8931 183.055 23.9331 183.055 22.6797C183.055 22.4131 183.069 22.2131 183.095 22.0797V14.8797C183.095 13.7331 183.482 12.7731 184.255 11.9997C185.055 11.1997 186.029 10.7997 187.175 10.7997ZM214.743 14.3197C215.783 15.3597 216.596 16.6531 217.183 18.1997C217.743 19.6397 217.996 21.2664 217.943 23.0797C217.889 24.2797 217.743 25.3597 217.503 26.3197C217.263 27.2797 216.956 28.1464 216.583 28.9197C216.236 29.6664 215.849 30.3331 215.423 30.9197C214.996 31.5064 214.583 31.9997 214.183 32.3997C213.116 33.4664 211.836 34.2931 210.343 34.8797C208.983 35.4397 207.556 35.7197 206.063 35.7197C205.423 35.7197 204.783 35.6664 204.143 35.5597C203.529 35.4531 202.916 35.2931 202.303 35.0797V45.6397C202.303 46.1997 202.196 46.7197 201.983 47.1997C201.769 47.7064 201.476 48.1464 201.103 48.5197C200.756 48.8931 200.329 49.1864 199.823 49.3997C199.316 49.6131 198.783 49.7197 198.223 49.7197C197.663 49.7197 197.129 49.6131 196.623 49.3997C196.143 49.1864 195.716 48.8931 195.343 48.5197C194.969 48.1464 194.676 47.7064 194.463 47.1997C194.249 46.7197 194.143 46.1997 194.143 45.6397V14.9997C194.143 14.4397 194.249 13.9197 194.463 13.4397C194.676 12.9331 194.969 12.4931 195.343 12.1197C195.716 11.7464 196.143 11.4531 196.623 11.2397C197.129 11.0264 197.663 10.9197 198.223 10.9197C198.783 10.9197 199.316 11.0264 199.823 11.2397C200.329 11.4531 200.769 11.7464 201.143 12.1197C202.769 11.3197 204.556 10.9197 206.503 10.9197C207.969 10.9197 209.423 11.1864 210.863 11.7197C212.356 12.3331 213.649 13.1997 214.743 14.3197ZM209.783 22.8397C209.809 21.6131 209.516 20.6664 208.903 19.9997C208.609 19.7064 208.249 19.4797 207.823 19.3197C207.423 19.1597 206.983 19.0797 206.503 19.0797C205.436 19.0797 204.543 19.3997 203.823 20.0397C203.049 20.7597 202.636 21.7864 202.583 23.1197C202.529 24.6131 202.889 25.7597 203.663 26.5597C204.276 27.2264 205.076 27.5597 206.063 27.5597C206.489 27.5597 206.916 27.4797 207.343 27.3197C207.769 27.1597 208.156 26.8931 208.503 26.5197C208.876 26.1464 209.169 25.6664 209.383 25.0797C209.623 24.4664 209.756 23.7197 209.783 22.8397Z" fill="url(#paint0_linear_2607_3)"/>
<defs>
<linearGradient id="paint0_linear_2607_3" x1="0.0800781" y1="25.7197" x2="221.08" y2="25.7197" gradientUnits="userSpaceOnUse">
<stop stop-color="#C8A96A"/>
<stop offset="0.5" stop-color="#E4558A"/>
<stop offset="1" stop-color="#58CFFF"/>
</linearGradient>
</defs>
</svg>
